{
  "streams": [
    {
      "index": 0,
      "codec_name": "hevc",
      "codec_long_name": "H.265 / HEVC (High Efficiency Video Coding)",
      "profile": "Main",
      "codec_type": "video",
      "codec_tag_string": "[0][0][0][0]",
      "codec_tag": "0x0000",
      "width": 1920,
      "height": 1080,
      "coded_width": 1920,
      "coded_height": 1088,
      "closed_captions": 0,
      "film_grain": 0,
      "has_b_frames": 0,
      "sample_aspect_ratio": "1:1",
      "display_aspect_ratio": "16:9",
      "pix_fmt": "yuv420p",
      "level": 120,
      "color_range": "tv",
      "chroma_location": "left",
      "field_order": "progressive",
      "refs": 1,
      "r_frame_rate": "25/1",
      "avg_frame_rate": "25/1",
      "time_base": "1/1000",
      "start_pts": 21,
      "start_time": "0.021000",
      "extradata_size": 124,
      "disposition": {
        "default": 1,
        "dub": 0,
        "original": 0,
        "comment": 0,
        "lyrics": 0,
        "karaoke": 0,
        "forced": 0,
        "hearing_impaired": 0,
        "visual_impaired": 0,
        "clean_effects": 0,
        "attached_pic": 0,
        "timed_thumbnails": 0,
        "captions": 0,
        "descriptions": 0,
        "metadata": 0,
        "dependent": 0,
        "still_image": 0
      },
      "tags": {
        "BPS": "4862423",
        "NUMBER_OF_FRAMES": "75391",
        "NUMBER_OF_BYTES": "1832914897",
        "_STATISTICS_WRITING_APP": "mkvmerge v82.0 ('I'm The President') 64-bit",
        "_STATISTICS_WRITING_DATE_UTC": "2024-07-26 07:35:21",
        "_STATISTICS_TAGS": "BPS DURATION NUMBER_OF_FRAMES NUMBER_OF_BYTES",
        "ENCODER": "Lavc59.6.100 hevc_nvenc",
        "DURATION": "00:50:15.661000000"
      }
    },
    {
      "index": 1,
      "codec_name": "aac",
      "codec_long_name": "AAC (Advanced Audio Coding)",
      "profile": "LC",
      "codec_type": "audio",
      "codec_tag_string": "[0][0][0][0]",
      "codec_tag": "0x0000",
      "sample_fmt": "fltp",
      "sample_rate": "48000",
      "channels": 6,
      "bits_per_sample": 0,
      "r_frame_rate": "0/0",
      "avg_frame_rate": "0/0",
      "time_base": "1/1000",
      "start_pts": 0,
      "start_time": "0.000000",
      "extradata_size": 25,
      "disposition": {
        "default": 1,
        "dub": 0,
        "original": 0,
        "comment": 0,
        "lyrics": 0,
        "karaoke": 0,
        "forced": 0,
        "hearing_impaired": 0,
        "visual_impaired": 0,
        "clean_effects": 0,
        "attached_pic": 0,
        "timed_thumbnails": 0,
        "captions": 0,
        "descriptions": 0,
        "metadata": 0,
        "dependent": 0,
        "still_image": 0
      },
      "tags": {
        "language": "spa",
        "title": "European",
        "BPS": "768000",
        "NUMBER_OF_FRAMES": "94240",
        "NUMBER_OF_BYTES": "289505280",
        "_STATISTICS_WRITING_APP": "mkvmerge v82.0 ('I'm The President') 64-bit",
        "_STATISTICS_WRITING_DATE_UTC": "2024-07-26 07:35:21",
        "_STATISTICS_TAGS": "BPS DURATION NUMBER_OF_FRAMES NUMBER_OF_BYTES",
        "ENCODER": "Lavc59.6.100 aac",
        "DURATION": "00:50:15.701000000"
      }
    },
    {
      "index": 2,
      "codec_name": "subrip",
      "codec_long_name": "SubRip subtitle",
      "codec_type": "subtitle",
      "codec_tag_string": "[0][0][0][0]",
      "codec_tag": "0x0000",
      "r_frame_rate": "0/0",
      "avg_frame_rate": "0/0",
      "time_base": "1/1000",
      "start_pts": 0,
      "start_time": "0.000000",
      "duration_ts": 3015701,
      "duration": "3015.701000",
      "disposition": {
        "default": 1,
        "dub": 0,
        "original": 0,
        "comment": 0,
        "lyrics": 0,
        "karaoke": 0,
        "forced": 1,
        "hearing_impaired": 0,
        "visual_impaired": 0,
        "clean_effects": 0,
        "attached_pic": 0,
        "timed_thumbnails": 0,
        "captions": 0,
        "descriptions": 0,
        "metadata": 0,
        "dependent": 0,
        "still_image": 0
      },
      "tags": {
        "language": "spa",
        "title": "European (Forced)",
        "BPS": "93",
        "NUMBER_OF_FRAMES": "1",
        "NUMBER_OF_BYTES": "37",
        "_STATISTICS_WRITING_APP": "mkvmerge v82.0 ('I'm The President') 64-bit",
        "_STATISTICS_WRITING_DATE_UTC": "2024-07-26 07:35:21",
        "_STATISTICS_TAGS": "BPS DURATION NUMBER_OF_FRAMES NUMBER_OF_BYTES",
        "DURATION": "00:17:41.581000000"
      }
    },
    {
      "index": 3,
      "codec_name": "subrip",
      "codec_long_name": "SubRip subtitle",
      "codec_type": "subtitle",
      "codec_tag_string": "[0][0][0][0]",
      "codec_tag": "0x0000",
      "r_frame_rate": "0/0",
      "avg_frame_rate": "0/0",
      "time_base": "1/1000",
      "start_pts": 0,
      "start_time": "0.000000",
      "duration_ts": 3015701,
      "duration": "3015.701000",
      "disposition": {
        "default": 0,
        "dub": 0,
        "original": 0,
        "comment": 0,
        "lyrics": 0,
        "karaoke": 0,
        "forced": 0,
        "hearing_impaired": 0,
        "visual_impaired": 0,
        "clean_effects": 0,
        "attached_pic": 0,
        "timed_thumbnails": 0,
        "captions": 0,
        "descriptions": 0,
        "metadata": 0,
        "dependent": 0,
        "still_image": 0
      },
      "tags": {
        "language": "ara",
        "BPS": "115",
        "NUMBER_OF_FRAMES": "671",
        "NUMBER_OF_BYTES": "39474",
        "_STATISTICS_WRITING_APP": "mkvmerge v82.0 ('I'm The President') 64-bit",
        "_STATISTICS_WRITING_DATE_UTC": "2024-07-26 07:35:21",
        "_STATISTICS_TAGS": "BPS DURATION NUMBER_OF_FRAMES NUMBER_OF_BYTES",
        "DURATION": "00:46:42.381000000"
      }
    },
    {
      "index": 4,
      "codec_name": "subrip",
      "codec_long_name": "SubRip subtitle",
      "codec_type": "subtitle",
      "codec_tag_string": "[0][0][0][0]",
      "codec_tag": "0x0000",
      "r_frame_rate": "0/0",
      "avg_frame_rate": "0/0",
      "time_base": "1/1000",
      "start_pts": 0,
      "start_time": "0.000000",
      "duration_ts": 3015701,
      "duration": "3015.701000",
      "disposition": {
        "default": 0,
        "dub": 0,
        "original": 0,
        "comment": 0,
        "lyrics": 0,
        "karaoke": 0,
        "forced": 0,
        "hearing_impaired": 0,
        "visual_impaired": 0,
        "clean_effects": 0,
        "attached_pic": 0,
        "timed_thumbnails": 0,
        "captions": 0,
        "descriptions": 0,
        "metadata": 0,
        "dependent": 0,
        "still_image": 0
      },
      "tags": {
        "language": "cze",
        "BPS": "55",
        "NUMBER_OF_FRAMES": "659",
        "NUMBER_OF_BYTES": "19682",
        "_STATISTICS_WRITING_APP": "mkvmerge v82.0 ('I'm The President') 64-bit",
        "_STATISTICS_WRITING_DATE_UTC": "2024-07-26 07:35:21",
        "_STATISTICS_TAGS": "BPS DURATION NUMBER_OF_FRAMES NUMBER_OF_BYTES",
        "DURATION": "00:48:39.141000000"
      }
    },
    {
      "index": 5,
      "codec_name": "subrip",
      "codec_long_name": "SubRip subtitle",
      "codec_type": "subtitle",
      "codec_tag_string": "[0][0][0][0]",
      "codec_tag": "0x0000",
      "r_frame_rate": "0/0",
      "avg_frame_rate": "0/0",
      "time_base": "1/1000",
      "start_pts": 0,
      "start_time": "0.000000",
      "duration_ts": 3015701,
      "duration": "3015.701000",
      "disposition": {
        "default": 0,
        "dub": 0,
        "original": 0,
        "comment": 0,
        "lyrics": 0,
        "karaoke": 0,
        "forced": 0,
        "hearing_impaired": 0,
        "visual_impaired": 0,
        "clean_effects": 0,
        "attached_pic": 0,
        "timed_thumbnails": 0,
        "captions": 0,
        "descriptions": 0,
        "metadata": 0,
        "dependent": 0,
        "still_image": 0
      },
      "tags": {
        "language": "dan",
        "BPS": "57",
        "NUMBER_OF_FRAMES": "612",
        "NUMBER_OF_BYTES": "20495",
        "_STATISTICS_WRITING_APP": "mkvmerge v82.0 ('I'm The President') 64-bit",
        "_STATISTICS_WRITING_DATE_UTC": "2024-07-26 07:35:21",
        "_STATISTICS_TAGS": "BPS DURATION NUMBER_OF_FRAMES NUMBER_OF_BYTES",
        "DURATION": "00:48:39.141000000"
      }
    },
    {
      "index": 6,
      "codec_name": "subrip",
      "codec_long_name": "SubRip subtitle",
      "codec_type": "subtitle",
      "codec_tag_string": "[0][0][0][0]",
      "codec_tag": "0x0000",
      "r_frame_rate": "0/0",
      "avg_frame_rate": "0/0",
      "time_base": "1/1000",
      "start_pts": 0,
      "start_time": "0.000000",
      "duration_ts": 3015701,
      "duration": "3015.701000",
      "disposition": {
        "default": 0,
        "dub": 0,
        "original": 0,
        "comment": 0,
        "lyrics": 0,
        "karaoke": 0,
        "forced": 0,
        "hearing_impaired": 0,
        "visual_impaired": 0,
        "clean_effects": 0,
        "attached_pic": 0,
        "timed_thumbnails": 0,
        "captions": 0,
        "descriptions": 0,
        "metadata": 0,
        "dependent": 0,
        "still_image": 0
      },
      "tags": {
        "language": "ger",
        "BPS": "61",
        "NUMBER_OF_FRAMES": "592",
        "NUMBER_OF_BYTES": "21935",
        "_STATISTICS_WRITING_APP": "mkvmerge v82.0 ('I'm The President') 64-bit",
        "_STATISTICS_WRITING_DATE_UTC": "2024-07-26 07:35:21",
        "_STATISTICS_TAGS": "BPS DURATION NUMBER_OF_FRAMES NUMBER_OF_BYTES",
        "DURATION": "00:48:39.141000000"
      }
    },
    {
      "index": 7,
      "codec_name": "subrip",
      "codec_long_name": "SubRip subtitle",
      "codec_type": "subtitle",
      "codec_tag_string": "[0][0][0][0]",
      "codec_tag": "0x0000",
      "r_frame_rate": "0/0",
      "avg_frame_rate": "0/0",
      "time_base": "1/1000",
      "start_pts": 0,
      "start_time": "0.000000",
      "duration_ts": 3015701,
      "duration": "3015.701000",
      "disposition": {
        "default": 0,
        "dub": 0,
        "original": 0,
        "comment": 0,
        "lyrics": 0,
        "karaoke": 0,
        "forced": 0,
        "hearing_impaired": 0,
        "visual_impaired": 0,
        "clean_effects": 0,
        "attached_pic": 0,
        "timed_thumbnails": 0,
        "captions": 0,
        "descriptions": 0,
        "metadata": 0,
        "dependent": 0,
        "still_image": 0
      },
      "tags": {
        "language": "ger",
        "BPS": "78",
        "NUMBER_OF_FRAMES": "643",
        "NUMBER_OF_BYTES": "26805",
        "_STATISTICS_WRITING_APP": "mkvmerge v82.0 ('I'm The President') 64-bit",
        "_STATISTICS_WRITING_DATE_UTC": "2024-07-26 07:35:21",
        "_STATISTICS_TAGS": "BPS DURATION NUMBER_OF_FRAMES NUMBER_OF_BYTES",
        "DURATION": "00:45:25.861000000"
      }
    },
    {
      "index": 8,
      "codec_name": "subrip",
      "codec_long_name": "SubRip subtitle",
      "codec_type": "subtitle",
      "codec_tag_string": "[0][0][0][0]",
      "codec_tag": "0x0000",
      "r_frame_rate": "0/0",
      "avg_frame_rate": "0/0",
      "time_base": "1/1000",
      "start_pts": 0,
      "start_time": "0.000000",
      "duration_ts": 3015701,
      "duration": "3015.701000",
      "disposition": {
        "default": 0,
        "dub": 0,
        "original": 0,
        "comment": 0,
        "lyrics": 0,
        "karaoke": 0,
        "forced": 0,
        "hearing_impaired": 0,
        "visual_impaired": 0,
        "clean_effects": 0,
        "attached_pic": 0,
        "timed_thumbnails": 0,
        "captions": 0,
        "descriptions": 0,
        "metadata": 0,
        "dependent": 0,
        "still_image": 0
      },
      "tags": {
        "language": "ger",
        "title": "SDH",
        "BPS": "81",
        "NUMBER_OF_FRAMES": "709",
        "NUMBER_OF_BYTES": "28440",
        "_STATISTICS_WRITING_APP": "mkvmerge v82.0 ('I'm The President') 64-bit",
        "_STATISTICS_WRITING_DATE_UTC": "2024-07-26 07:35:21",
        "_STATISTICS_TAGS": "BPS DURATION NUMBER_OF_FRAMES NUMBER_OF_BYTES",
        "DURATION": "00:46:42.501000000"
      }
    },
    {
      "index": 9,
      "codec_name": "subrip",
      "codec_long_name": "SubRip subtitle",
      "codec_type": "subtitle",
      "codec_tag_string": "[0][0][0][0]",
      "codec_tag": "0x0000",
      "r_frame_rate": "0/0",
      "avg_frame_rate": "0/0",
      "time_base": "1/1000",
      "start_pts": 0,
      "start_time": "0.000000",
      "duration_ts": 3015701,
      "duration": "3015.701000",
      "disposition": {
        "default": 0,
        "dub": 0,
        "original": 0,
        "comment": 0,
        "lyrics": 0,
        "karaoke": 0,
        "forced": 0,
        "hearing_impaired": 0,
        "visual_impaired": 0,
        "clean_effects": 0,
        "attached_pic": 0,
        "timed_thumbnails": 0,
        "captions": 0,
        "descriptions": 0,
        "metadata": 0,
        "dependent": 0,
        "still_image": 0
      },
      "tags": {
        "language": "gre",
        "BPS": "100",
        "NUMBER_OF_FRAMES": "621",
        "NUMBER_OF_BYTES": "35704",
        "_STATISTICS_WRITING_APP": "mkvmerge v82.0 ('I'm The President') 64-bit",
        "_STATISTICS_WRITING_DATE_UTC": "2024-07-26 07:35:21",
        "_STATISTICS_TAGS": "BPS DURATION NUMBER_OF_FRAMES NUMBER_OF_BYTES",
        "DURATION": "00:48:39.141000000"
      }
    },
    {
      "index": 10,
      "codec_name": "subrip",
      "codec_long_name": "SubRip subtitle",
      "codec_type": "subtitle",
      "codec_tag_string": "[0][0][0][0]",
      "codec_tag": "0x0000",
      "r_frame_rate": "0/0",
      "avg_frame_rate": "0/0",
      "time_base": "1/1000",
      "start_pts": 0,
      "start_time": "0.000000",
      "duration_ts": 3015701,
      "duration": "3015.701000",
      "disposition": {
        "default": 0,
        "dub": 0,
        "original": 0,
        "comment": 0,
        "lyrics": 0,
        "karaoke": 0,
        "forced": 0,
        "hearing_impaired": 0,
        "visual_impaired": 0,
        "clean_effects": 0,
        "attached_pic": 0,
        "timed_thumbnails": 0,
        "captions": 0,
        "descriptions": 0,
        "metadata": 0,
        "dependent": 0,
        "still_image": 0
      },
      "tags": {
        "language": "eng",
        "BPS": "60",
        "NUMBER_OF_FRAMES": "651",
        "NUMBER_OF_BYTES": "21643",
        "_STATISTICS_WRITING_APP": "mkvmerge v82.0 ('I'm The President') 64-bit",
        "_STATISTICS_WRITING_DATE_UTC": "2024-07-26 07:35:21",
        "_STATISTICS_TAGS": "BPS DURATION NUMBER_OF_FRAMES NUMBER_OF_BYTES",
        "DURATION": "00:48:39.141000000"
      }
    },
    {
      "index": 11,
      "codec_name": "subrip",
      "codec_long_name": "SubRip subtitle",
      "codec_type": "subtitle",
      "codec_tag_string": "[0][0][0][0]",
      "codec_tag": "0x0000",
      "r_frame_rate": "0/0",
      "avg_frame_rate": "0/0",
      "time_base": "1/1000",
      "start_pts": 0,
      "start_time": "0.000000",
      "duration_ts": 3015701,
      "duration": "3015.701000",
      "disposition": {
        "default": 0,
        "dub": 0,
        "original": 0,
        "comment": 0,
        "lyrics": 0,
        "karaoke": 0,
        "forced": 0,
        "hearing_impaired": 0,
        "visual_impaired": 0,
        "clean_effects": 0,
        "attached_pic": 0,
        "timed_thumbnails": 0,
        "captions": 0,
        "descriptions": 0,
        "metadata": 0,
        "dependent": 0,
        "still_image": 0
      },
      "tags": {
        "language": "eng",
        "BPS": "72",
        "NUMBER_OF_FRAMES": "746",
        "NUMBER_OF_BYTES": "26227",
        "_STATISTICS_WRITING_APP": "mkvmerge v82.0 ('I'm The President') 64-bit",
        "_STATISTICS_WRITING_DATE_UTC": "2024-07-26 07:35:21",
        "_STATISTICS_TAGS": "BPS DURATION NUMBER_OF_FRAMES NUMBER_OF_BYTES",
        "DURATION": "00:48:39.141000000"
      }
    },
    {
      "index": 12,
      "codec_name": "subrip",
      "codec_long_name": "SubRip subtitle",
      "codec_type": "subtitle",
      "codec_tag_string": "[0][0][0][0]",
      "codec_tag": "0x0000",
      "r_frame_rate": "0/0",
      "avg_frame_rate": "0/0",
      "time_base": "1/1000",
      "start_pts": 0,
      "start_time": "0.000000",
      "duration_ts": 3015701,
      "duration": "3015.701000",
      "disposition": {
        "default": 0,
        "dub": 0,
        "original": 0,
        "comment": 0,
        "lyrics": 0,
        "karaoke": 0,
        "forced": 0,
        "hearing_impaired": 0,
        "visual_impaired": 0,
        "clean_effects": 0,
        "attached_pic": 0,
        "timed_thumbnails": 0,
        "captions": 0,
        "descriptions": 0,
        "metadata": 0,
        "dependent": 0,
        "still_image": 0
      },
      "tags": {
        "language": "eng",
        "title": "SDH",
        "BPS": "80",
        "NUMBER_OF_FRAMES": "841",
        "NUMBER_OF_BYTES": "29261",
        "_STATISTICS_WRITING_APP": "mkvmerge v82.0 ('I'm The President') 64-bit",
        "_STATISTICS_WRITING_DATE_UTC": "2024-07-26 07:35:21",
        "_STATISTICS_TAGS": "BPS DURATION NUMBER_OF_FRAMES NUMBER_OF_BYTES",
        "DURATION": "00:48:39.141000000"
      }
    },
    {
      "index": 13,
      "codec_name": "subrip",
      "codec_long_name": "SubRip subtitle",
      "codec_type": "subtitle",
      "codec_tag_string": "[0][0][0][0]",
      "codec_tag": "0x0000",
      "r_frame_rate": "0/0",
      "avg_frame_rate": "0/0",
      "time_base": "1/1000",
      "start_pts": 0,
      "start_time": "0.000000",
      "duration_ts": 3015701,
      "duration": "3015.701000",
      "disposition": {
        "default": 0,
        "dub": 0,
        "original": 0,
        "comment": 0,
        "lyrics": 0,
        "karaoke": 0,
        "forced": 0,
        "hearing_impaired": 0,
        "visual_impaired": 0,
        "clean_effects": 0,
        "attached_pic": 0,
        "timed_thumbnails": 0,
        "captions": 0,
        "descriptions": 0,
        "metadata": 0,
        "dependent": 0,
        "still_image": 0
      },
      "tags": {
        "language": "spa",
        "title": "European (SDH)",
        "BPS": "70",
        "NUMBER_OF_FRAMES": "731",
        "NUMBER_OF_BYTES": "25469",
        "_STATISTICS_WRITING_APP": "mkvmerge v82.0 ('I'm The President') 64-bit",
        "_STATISTICS_WRITING_DATE_UTC": "2024-07-26 07:35:21",
        "_STATISTICS_TAGS": "BPS DURATION NUMBER_OF_FRAMES NUMBER_OF_BYTES",
        "DURATION": "00:48:39.141000000"
      }
    },
    {
      "index": 14,
      "codec_name": "subrip",
      "codec_long_name": "SubRip subtitle",
      "codec_type": "subtitle",
      "codec_tag_string": "[0][0][0][0]",
      "codec_tag": "0x0000",
      "r_frame_rate": "0/0",
      "avg_frame_rate": "0/0",
      "time_base": "1/1000",
      "start_pts": 0,
      "start_time": "0.000000",
      "duration_ts": 3015701,
      "duration": "3015.701000",
      "disposition": {
        "default": 0,
        "dub": 0,
        "original": 0,
        "comment": 0,
        "lyrics": 0,
        "karaoke": 0,
        "forced": 0,
        "hearing_impaired": 0,
        "visual_impaired": 0,
        "clean_effects": 0,
        "attached_pic": 0,
        "timed_thumbnails": 0,
        "captions": 0,
        "descriptions": 0,
        "metadata": 0,
        "dependent": 0,
        "still_image": 0
      },
      "tags": {
        "language": "fin",
        "BPS": "58",
        "NUMBER_OF_FRAMES": "469",
        "NUMBER_OF_BYTES": "20664",
        "_STATISTICS_WRITING_APP": "mkvmerge v82.0 ('I'm The President') 64-bit",
        "_STATISTICS_WRITING_DATE_UTC": "2024-07-26 07:35:21",
        "_STATISTICS_TAGS": "BPS DURATION NUMBER_OF_FRAMES NUMBER_OF_BYTES",
        "DURATION": "00:48:39.141000000"
      }
    },
    {
      "index": 15,
      "codec_name": "subrip",
      "codec_long_name": "SubRip subtitle",
      "codec_type": "subtitle",
      "codec_tag_string": "[0][0][0][0]",
      "codec_tag": "0x0000",
      "r_frame_rate": "0/0",
      "avg_frame_rate": "0/0",
      "time_base": "1/1000",
      "start_pts": 0,
      "start_time": "0.000000",
      "duration_ts": 3015701,
      "duration": "3015.701000",
      "disposition": {
        "default": 0,
        "dub": 0,
        "original": 0,
        "comment": 0,
        "lyrics": 0,
        "karaoke": 0,
        "forced": 0,
        "hearing_impaired": 0,
        "visual_impaired": 0,
        "clean_effects": 0,
        "attached_pic": 0,
        "timed_thumbnails": 0,
        "captions": 0,
        "descriptions": 0,
        "metadata": 0,
        "dependent": 0,
        "still_image": 0
      },
      "tags": {
        "language": "fil",
        "BPS": "59",
        "NUMBER_OF_FRAMES": "612",
        "NUMBER_OF_BYTES": "21168",
        "_STATISTICS_WRITING_APP": "mkvmerge v82.0 ('I'm The President') 64-bit",
        "_STATISTICS_WRITING_DATE_UTC": "2024-07-26 07:35:21",
        "_STATISTICS_TAGS": "BPS DURATION NUMBER_OF_FRAMES NUMBER_OF_BYTES",
        "DURATION": "00:48:38.421000000"
      }
    },
    {
      "index": 16,
      "codec_name": "subrip",
      "codec_long_name": "SubRip subtitle",
      "codec_type": "subtitle",
      "codec_tag_string": "[0][0][0][0]",
      "codec_tag": "0x0000",
      "r_frame_rate": "0/0",
      "avg_frame_rate": "0/0",
      "time_base": "1/1000",
      "start_pts": 0,
      "start_time": "0.000000",
      "duration_ts": 3015701,
      "duration": "3015.701000",
      "disposition": {
        "default": 0,
        "dub": 0,
        "original": 0,
        "comment": 0,
        "lyrics": 0,
        "karaoke": 0,
        "forced": 0,
        "hearing_impaired": 0,
        "visual_impaired": 0,
        "clean_effects": 0,
        "attached_pic": 0,
        "timed_thumbnails": 0,
        "captions": 0,
        "descriptions": 0,
        "metadata": 0,
        "dependent": 0,
        "still_image": 0
      },
      "tags": {
        "language": "fre",
        "BPS": "59",
        "NUMBER_OF_FRAMES": "624",
        "NUMBER_OF_BYTES": "21319",
        "_STATISTICS_WRITING_APP": "mkvmerge v82.0 ('I'm The President') 64-bit",
        "_STATISTICS_WRITING_DATE_UTC": "2024-07-26 07:35:21",
        "_STATISTICS_TAGS": "BPS DURATION NUMBER_OF_FRAMES NUMBER_OF_BYTES",
        "DURATION": "00:48:39.141000000"
      }
    },
    {
      "index": 17,
      "codec_name": "subrip",
      "codec_long_name": "SubRip subtitle",
      "codec_type": "subtitle",
      "codec_tag_string": "[0][0][0][0]",
      "codec_tag": "0x0000",
      "r_frame_rate": "0/0",
      "avg_frame_rate": "0/0",
      "time_base": "1/1000",
      "start_pts": 0,
      "start_time": "0.000000",
      "duration_ts": 3015701,
      "duration": "3015.701000",
      "disposition": {
        "default": 0,
        "dub": 0,
        "original": 0,
        "comment": 0,
        "lyrics": 0,
        "karaoke": 0,
        "forced": 0,
        "hearing_impaired": 0,
        "visual_impaired": 0,
        "clean_effects": 0,
        "attached_pic": 0,
        "timed_thumbnails": 0,
        "captions": 0,
        "descriptions": 0,
        "metadata": 0,
        "dependent": 0,
        "still_image": 0
      },
      "tags": {
        "language": "fre",
        "BPS": "78",
        "NUMBER_OF_FRAMES": "633",
        "NUMBER_OF_BYTES": "26193",
        "_STATISTICS_WRITING_APP": "mkvmerge v82.0 ('I'm The President') 64-bit",
        "_STATISTICS_WRITING_DATE_UTC": "2024-07-26 07:35:21",
        "_STATISTICS_TAGS": "BPS DURATION NUMBER_OF_FRAMES NUMBER_OF_BYTES",
        "DURATION": "00:45:25.821000000"
      }
    },
    {
      "index": 18,
      "codec_name": "subrip",
      "codec_long_name": "SubRip subtitle",
      "codec_type": "subtitle",
      "codec_tag_string": "[0][0][0][0]",
      "codec_tag": "0x0000",
      "r_frame_rate": "0/0",
      "avg_frame_rate": "0/0",
      "time_base": "1/1000",
      "start_pts": 0,
      "start_time": "0.000000",
      "duration_ts": 3015701,
      "duration": "3015.701000",
      "disposition": {
        "default": 0,
        "dub": 0,
        "original": 0,
        "comment": 0,
        "lyrics": 0,
        "karaoke": 0,
        "forced": 0,
        "hearing_impaired": 0,
        "visual_impaired": 0,
        "clean_effects": 0,
        "attached_pic": 0,
        "timed_thumbnails": 0,
        "captions": 0,
        "descriptions": 0,
        "metadata": 0,
        "dependent": 0,
        "still_image": 0
      },
      "tags": {
        "language": "fre",
        "title": "SDH",
        "BPS": "76",
        "NUMBER_OF_FRAMES": "695",
        "NUMBER_OF_BYTES": "27651",
        "_STATISTICS_WRITING_APP": "mkvmerge v82.0 ('I'm The President') 64-bit",
        "_STATISTICS_WRITING_DATE_UTC": "2024-07-26 07:35:21",
        "_STATISTICS_TAGS": "BPS DURATION NUMBER_OF_FRAMES NUMBER_OF_BYTES",
        "DURATION": "00:48:39.141000000"
      }
    },
    {
      "index": 19,
      "codec_name": "subrip",
      "codec_long_name": "SubRip subtitle",
      "codec_type": "subtitle",
      "codec_tag_string": "[0][0][0][0]",
      "codec_tag": "0x0000",
      "r_frame_rate": "0/0",
      "avg_frame_rate": "0/0",
      "time_base": "1/1000",
      "start_pts": 0,
      "start_time": "0.000000",
      "duration_ts": 3015701,
      "duration": "3015.701000",
      "disposition": {
        "default": 0,
        "dub": 0,
        "original": 0,
        "comment": 0,
        "lyrics": 0,
        "karaoke": 0,
        "forced": 0,
        "hearing_impaired": 0,
        "visual_impaired": 0,
        "clean_effects": 0,
        "attached_pic": 0,
        "timed_thumbnails": 0,
        "captions": 0,
        "descriptions": 0,
        "metadata": 0,
        "dependent": 0,
        "still_image": 0
      },
      "tags": {
        "language": "heb",
        "BPS": "100",
        "NUMBER_OF_FRAMES": "637",
        "NUMBER_OF_BYTES": "35846",
        "_STATISTICS_WRITING_APP": "mkvmerge v82.0 ('I'm The President') 64-bit",
        "_STATISTICS_WRITING_DATE_UTC": "2024-07-26 07:35:21",
        "_STATISTICS_TAGS": "BPS DURATION NUMBER_OF_FRAMES NUMBER_OF_BYTES",
        "DURATION": "00:48:39.141000000"
      }
    },
    {
      "index": 20,
      "codec_name": "subrip",
      "codec_long_name": "SubRip subtitle",
      "codec_type": "subtitle",
      "codec_tag_string": "[0][0][0][0]",
      "codec_tag": "0x0000",
      "r_frame_rate": "0/0",
      "avg_frame_rate": "0/0",
      "time_base": "1/1000",
      "start_pts": 0,
      "start_time": "0.000000",
      "duration_ts": 3015701,
      "duration": "3015.701000",
      "disposition": {
        "default": 0,
        "dub": 0,
        "original": 0,
        "comment": 0,
        "lyrics": 0,
        "karaoke": 0,
        "forced": 0,
        "hearing_impaired": 0,
        "visual_impaired": 0,
        "clean_effects": 0,
        "attached_pic": 0,
        "timed_thumbnails": 0,
        "captions": 0,
        "descriptions": 0,
        "metadata": 0,
        "dependent": 0,
        "still_image": 0
      },
      "tags": {
        "language": "hrv",
        "BPS": "56",
        "NUMBER_OF_FRAMES": "597",
        "NUMBER_OF_BYTES": "20208",
        "_STATISTICS_WRITING_APP": "mkvmerge v82.0 ('I'm The President') 64-bit",
        "_STATISTICS_WRITING_DATE_UTC": "2024-07-26 07:35:21",
        "_STATISTICS_TAGS": "BPS DURATION NUMBER_OF_FRAMES NUMBER_OF_BYTES",
        "DURATION": "00:48:39.141000000"
      }
    },
    {
      "index": 21,
      "codec_name": "subrip",
      "codec_long_name": "SubRip subtitle",
      "codec_type": "subtitle",
      "codec_tag_string": "[0][0][0][0]",
      "codec_tag": "0x0000",
      "r_frame_rate": "0/0",
      "avg_frame_rate": "0/0",
      "time_base": "1/1000",
      "start_pts": 0,
      "start_time": "0.000000",
      "duration_ts": 3015701,
      "duration": "3015.701000",
      "disposition": {
        "default": 0,
        "dub": 0,
        "original": 0,
        "comment": 0,
        "lyrics": 0,
        "karaoke": 0,
        "forced": 0,
        "hearing_impaired": 0,
        "visual_impaired": 0,
        "clean_effects": 0,
        "attached_pic": 0,
        "timed_thumbnails": 0,
        "captions": 0,
        "descriptions": 0,
        "metadata": 0,
        "dependent": 0,
        "still_image": 0
      },
      "tags": {
        "language": "hun",
        "BPS": "57",
        "NUMBER_OF_FRAMES": "627",
        "NUMBER_OF_BYTES": "20606",
        "_STATISTICS_WRITING_APP": "mkvmerge v82.0 ('I'm The President') 64-bit",
        "_STATISTICS_WRITING_DATE_UTC": "2024-07-26 07:35:21",
        "_STATISTICS_TAGS": "BPS DURATION NUMBER_OF_FRAMES NUMBER_OF_BYTES",
        "DURATION": "00:48:39.141000000"
      }
    },
    {
      "index": 22,
      "codec_name": "subrip",
      "codec_long_name": "SubRip subtitle",
      "codec_type": "subtitle",
      "codec_tag_string": "[0][0][0][0]",
      "codec_tag": "0x0000",
      "r_frame_rate": "0/0",
      "avg_frame_rate": "0/0",
      "time_base": "1/1000",
      "start_pts": 0,
      "start_time": "0.000000",
      "duration_ts": 3015701,
      "duration": "3015.701000",
      "disposition": {
        "default": 0,
        "dub": 0,
        "original": 0,
        "comment": 0,
        "lyrics": 0,
        "karaoke": 0,
        "forced": 0,
        "hearing_impaired": 0,
        "visual_impaired": 0,
        "clean_effects": 0,
        "attached_pic": 0,
        "timed_thumbnails": 0,
        "captions": 0,
        "descriptions": 0,
        "metadata": 0,
        "dependent": 0,
        "still_image": 0
      },
      "tags": {
        "language": "ind",
        "BPS": "57",
        "NUMBER_OF_FRAMES": "659",
        "NUMBER_OF_BYTES": "20499",
        "_STATISTICS_WRITING_APP": "mkvmerge v82.0 ('I'm The President') 64-bit",
        "_STATISTICS_WRITING_DATE_UTC": "2024-07-26 07:35:21",
        "_STATISTICS_TAGS": "BPS DURATION NUMBER_OF_FRAMES NUMBER_OF_BYTES",
        "DURATION": "00:48:38.341000000"
      }
    },
    {
      "index": 23,
      "codec_name": "subrip",
      "codec_long_name": "SubRip subtitle",
      "codec_type": "subtitle",
      "codec_tag_string": "[0][0][0][0]",
      "codec_tag": "0x0000",
      "r_frame_rate": "0/0",
      "avg_frame_rate": "0/0",
      "time_base": "1/1000",
      "start_pts": 0,
      "start_time": "0.000000",
      "duration_ts": 3015701,
      "duration": "3015.701000",
      "disposition": {
        "default": 0,
        "dub": 0,
        "original": 0,
        "comment": 0,
        "lyrics": 0,
        "karaoke": 0,
        "forced": 0,
        "hearing_impaired": 0,
        "visual_impaired": 0,
        "clean_effects": 0,
        "attached_pic": 0,
        "timed_thumbnails": 0,
        "captions": 0,
        "descriptions": 0,
        "metadata": 0,
        "dependent": 0,
        "still_image": 0
      },
      "tags": {
        "language": "ita",
        "BPS": "56",
        "NUMBER_OF_FRAMES": "643",
        "NUMBER_OF_BYTES": "19941",
        "_STATISTICS_WRITING_APP": "mkvmerge v82.0 ('I'm The President') 64-bit",
        "_STATISTICS_WRITING_DATE_UTC": "2024-07-26 07:35:21",
        "_STATISTICS_TAGS": "BPS DURATION NUMBER_OF_FRAMES NUMBER_OF_BYTES",
        "DURATION": "00:48:39.141000000"
      }
    },
    {
      "index": 24,
      "codec_name": "subrip",
      "codec_long_name": "SubRip subtitle",
      "codec_type": "subtitle",
      "codec_tag_string": "[0][0][0][0]",
      "codec_tag": "0x0000",
      "r_frame_rate": "0/0",
      "avg_frame_rate": "0/0",
      "time_base": "1/1000",
      "start_pts": 0,
      "start_time": "0.000000",
      "duration_ts": 3015701,
      "duration": "3015.701000",
      "disposition": {
        "default": 0,
        "dub": 0,
        "original": 0,
        "comment": 0,
        "lyrics": 0,
        "karaoke": 0,
        "forced": 0,
        "hearing_impaired": 0,
        "visual_impaired": 0,
        "clean_effects": 0,
        "attached_pic": 0,
        "timed_thumbnails": 0,
        "captions": 0,
        "descriptions": 0,
        "metadata": 0,
        "dependent": 0,
        "still_image": 0
      },
      "tags": {
        "language": "ita",
        "BPS": "69",
        "NUMBER_OF_FRAMES": "675",
        "NUMBER_OF_BYTES": "23171",
        "_STATISTICS_WRITING_APP": "mkvmerge v82.0 ('I'm The President') 64-bit",
        "_STATISTICS_WRITING_DATE_UTC": "2024-07-26 07:35:21",
        "_STATISTICS_TAGS": "BPS DURATION NUMBER_OF_FRAMES NUMBER_OF_BYTES",
        "DURATION": "00:45:25.861000000"
      }
    },
    {
      "index": 25,
      "codec_name": "subrip",
      "codec_long_name": "SubRip subtitle",
      "codec_type": "subtitle",
      "codec_tag_string": "[0][0][0][0]",
      "codec_tag": "0x0000",
      "r_frame_rate": "0/0",
      "avg_frame_rate": "0/0",
      "time_base": "1/1000",
      "start_pts": 0,
      "start_time": "0.000000",
      "duration_ts": 3015701,
      "duration": "3015.701000",
      "disposition": {
        "default": 0,
        "dub": 0,
        "original": 0,
        "comment": 0,
        "lyrics": 0,
        "karaoke": 0,
        "forced": 0,
        "hearing_impaired": 0,
        "visual_impaired": 0,
        "clean_effects": 0,
        "attached_pic": 0,
        "timed_thumbnails": 0,
        "captions": 0,
        "descriptions": 0,
        "metadata": 0,
        "dependent": 0,
        "still_image": 0
      },
      "tags": {
        "language": "ita",
        "title": "SDH",
        "BPS": "71",
        "NUMBER_OF_FRAMES": "736",
        "NUMBER_OF_BYTES": "25158",
        "_STATISTICS_WRITING_APP": "mkvmerge v82.0 ('I'm The President') 64-bit",
        "_STATISTICS_WRITING_DATE_UTC": "2024-07-26 07:35:21",
        "_STATISTICS_TAGS": "BPS DURATION NUMBER_OF_FRAMES NUMBER_OF_BYTES",
        "DURATION": "00:46:45.581000000"
      }
    },
    {
      "index": 26,
      "codec_name": "subrip",
      "codec_long_name": "SubRip subtitle",
      "codec_type": "subtitle",
      "codec_tag_string": "[0][0][0][0]",
      "codec_tag": "0x0000",
      "r_frame_rate": "0/0",
      "avg_frame_rate": "0/0",
      "time_base": "1/1000",
      "start_pts": 0,
      "start_time": "0.000000",
      "duration_ts": 3015701,
      "duration": "3015.701000",
      "disposition": {
        "default": 0,
        "dub": 0,
        "original": 0,
        "comment": 0,
        "lyrics": 0,
        "karaoke": 0,
        "forced": 0,
        "hearing_impaired": 0,
        "visual_impaired": 0,
        "clean_effects": 0,
        "attached_pic": 0,
        "timed_thumbnails": 0,
        "captions": 0,
        "descriptions": 0,
        "metadata": 0,
        "dependent": 0,
        "still_image": 0
      },
      "tags": {
        "language": "jpn",
        "BPS": "58",
        "NUMBER_OF_FRAMES": "708",
        "NUMBER_OF_BYTES": "20787",
        "_STATISTICS_WRITING_APP": "mkvmerge v82.0 ('I'm The President') 64-bit",
        "_STATISTICS_WRITING_DATE_UTC": "2024-07-26 07:35:21",
        "_STATISTICS_TAGS": "BPS DURATION NUMBER_OF_FRAMES NUMBER_OF_BYTES",
        "DURATION": "00:48:39.141000000"
      }
    },
    {
      "index": 27,
      "codec_name": "subrip",
      "codec_long_name": "SubRip subtitle",
      "codec_type": "subtitle",
      "codec_tag_string": "[0][0][0][0]",
      "codec_tag": "0x0000",
      "r_frame_rate": "0/0",
      "avg_frame_rate": "0/0",
      "time_base": "1/1000",
      "start_pts": 0,
      "start_time": "0.000000",
      "duration_ts": 3015701,
      "duration": "3015.701000",
      "disposition": {
        "default": 0,
        "dub": 0,
        "original": 0,
        "comment": 0,
        "lyrics": 0,
        "karaoke": 0,
        "forced": 0,
        "hearing_impaired": 0,
        "visual_impaired": 0,
        "clean_effects": 0,
        "attached_pic": 0,
        "timed_thumbnails": 0,
        "captions": 0,
        "descriptions": 0,
        "metadata": 0,
        "dependent": 0,
        "still_image": 0
      },
      "tags": {
        "language": "kor",
        "BPS": "65",
        "NUMBER_OF_FRAMES": "664",
        "NUMBER_OF_BYTES": "23247",
        "_STATISTICS_WRITING_APP": "mkvmerge v82.0 ('I'm The President') 64-bit",
        "_STATISTICS_WRITING_DATE_UTC": "2024-07-26 07:35:21",
        "_STATISTICS_TAGS": "BPS DURATION NUMBER_OF_FRAMES NUMBER_OF_BYTES",
        "DURATION": "00:48:39.141000000"
      }
    },
    {
      "index": 28,
      "codec_name": "subrip",
      "codec_long_name": "SubRip subtitle",
      "codec_type": "subtitle",
      "codec_tag_string": "[0][0][0][0]",
      "codec_tag": "0x0000",
      "r_frame_rate": "0/0",
      "avg_frame_rate": "0/0",
      "time_base": "1/1000",
      "start_pts": 0,
      "start_time": "0.000000",
      "duration_ts": 3015701,
      "duration": "3015.701000",
      "disposition": {
        "default": 0,
        "dub": 0,
        "original": 0,
        "comment": 0,
        "lyrics": 0,
        "karaoke": 0,
        "forced": 0,
        "hearing_impaired": 0,
        "visual_impaired": 0,
        "clean_effects": 0,
        "attached_pic": 0,
        "timed_thumbnails": 0,
        "captions": 0,
        "descriptions": 0,
        "metadata": 0,
        "dependent": 0,
        "still_image": 0
      },
      "tags": {
        "language": "may",
        "BPS": "53",
        "NUMBER_OF_FRAMES": "643",
        "NUMBER_OF_BYTES": "19112",
        "_STATISTICS_WRITING_APP": "mkvmerge v82.0 ('I'm The President') 64-bit",
        "_STATISTICS_WRITING_DATE_UTC": "2024-07-26 07:35:21",
        "_STATISTICS_TAGS": "BPS DURATION NUMBER_OF_FRAMES NUMBER_OF_BYTES",
        "DURATION": "00:48:39.141000000"
      }
    },
    {
      "index": 29,
      "codec_name": "subrip",
      "codec_long_name": "SubRip subtitle",
      "codec_type": "subtitle",
      "codec_tag_string": "[0][0][0][0]",
      "codec_tag": "0x0000",
      "r_frame_rate": "0/0",
      "avg_frame_rate": "0/0",
      "time_base": "1/1000",
      "start_pts": 0,
      "start_time": "0.000000",
      "duration_ts": 3015701,
      "duration": "3015.701000",
      "disposition": {
        "default": 0,
        "dub": 0,
        "original": 0,
        "comment": 0,
        "lyrics": 0,
        "karaoke": 0,
        "forced": 0,
        "hearing_impaired": 0,
        "visual_impaired": 0,
        "clean_effects": 0,
        "attached_pic": 0,
        "timed_thumbnails": 0,
        "captions": 0,
        "descriptions": 0,
        "metadata": 0,
        "dependent": 0,
        "still_image": 0
      },
      "tags": {
        "language": "nob",
        "BPS": "57",
        "NUMBER_OF_FRAMES": "600",
        "NUMBER_OF_BYTES": "20382",
        "_STATISTICS_WRITING_APP": "mkvmerge v82.0 ('I'm The President') 64-bit",
        "_STATISTICS_WRITING_DATE_UTC": "2024-07-26 07:35:21",
        "_STATISTICS_TAGS": "BPS DURATION NUMBER_OF_FRAMES NUMBER_OF_BYTES",
        "DURATION": "00:48:39.141000000"
      }
    },
    {
      "index": 30,
      "codec_name": "subrip",
      "codec_long_name": "SubRip subtitle",
      "codec_type": "subtitle",
      "codec_tag_string": "[0][0][0][0]",
      "codec_tag": "0x0000",
      "r_frame_rate": "0/0",
      "avg_frame_rate": "0/0",
      "time_base": "1/1000",
      "start_pts": 0,
      "start_time": "0.000000",
      "duration_ts": 3015701,
      "duration": "3015.701000",
      "disposition": {
        "default": 0,
        "dub": 0,
        "original": 0,
        "comment": 0,
        "lyrics": 0,
        "karaoke": 0,
        "forced": 0,
        "hearing_impaired": 0,
        "visual_impaired": 0,
        "clean_effects": 0,
        "attached_pic": 0,
        "timed_thumbnails": 0,
        "captions": 0,
        "descriptions": 0,
        "metadata": 0,
        "dependent": 0,
        "still_image": 0
      },
      "tags": {
        "language": "dut",
        "BPS": "57",
        "NUMBER_OF_FRAMES": "504",
        "NUMBER_OF_BYTES": "20380",
        "_STATISTICS_WRITING_APP": "mkvmerge v82.0 ('I'm The President') 64-bit",
        "_STATISTICS_WRITING_DATE_UTC": "2024-07-26 07:35:21",
        "_STATISTICS_TAGS": "BPS DURATION NUMBER_OF_FRAMES NUMBER_OF_BYTES",
        "DURATION": "00:48:35.621000000"
      }
    },
    {
      "index": 31,
      "codec_name": "subrip",
      "codec_long_name": "SubRip subtitle",
      "codec_type": "subtitle",
      "codec_tag_string": "[0][0][0][0]",
      "codec_tag": "0x0000",
      "r_frame_rate": "0/0",
      "avg_frame_rate": "0/0",
      "time_base": "1/1000",
      "start_pts": 0,
      "start_time": "0.000000",
      "duration_ts": 3015701,
      "duration": "3015.701000",
      "disposition": {
        "default": 0,
        "dub": 0,
        "original": 0,
        "comment": 0,
        "lyrics": 0,
        "karaoke": 0,
        "forced": 0,
        "hearing_impaired": 0,
        "visual_impaired": 0,
        "clean_effects": 0,
        "attached_pic": 0,
        "timed_thumbnails": 0,
        "captions": 0,
        "descriptions": 0,
        "metadata": 0,
        "dependent": 0,
        "still_image": 0
      },
      "tags": {
        "language": "pol",
        "BPS": "54",
        "NUMBER_OF_FRAMES": "645",
        "NUMBER_OF_BYTES": "19504",
        "_STATISTICS_WRITING_APP": "mkvmerge v82.0 ('I'm The President') 64-bit",
        "_STATISTICS_WRITING_DATE_UTC": "2024-07-26 07:35:21",
        "_STATISTICS_TAGS": "BPS DURATION NUMBER_OF_FRAMES NUMBER_OF_BYTES",
        "DURATION": "00:48:39.141000000"
      }
    },
    {
      "index": 32,
      "codec_name": "subrip",
      "codec_long_name": "SubRip subtitle",
      "codec_type": "subtitle",
      "codec_tag_string": "[0][0][0][0]",
      "codec_tag": "0x0000",
      "r_frame_rate": "0/0",
      "avg_frame_rate": "0/0",
      "time_base": "1/1000",
      "start_pts": 0,
      "start_time": "0.000000",
      "duration_ts": 3015701,
      "duration": "3015.701000",
      "disposition": {
        "default": 0,
        "dub": 0,
        "original": 0,
        "comment": 0,
        "lyrics": 0,
        "karaoke": 0,
        "forced": 0,
        "hearing_impaired": 0,
        "visual_impaired": 0,
        "clean_effects": 0,
        "attached_pic": 0,
        "timed_thumbnails": 0,
        "captions": 0,
        "descriptions": 0,
        "metadata": 0,
        "dependent": 0,
        "still_image": 0
      },
      "tags": {
        "language": "pol",
        "BPS": "48",
        "NUMBER_OF_FRAMES": "590",
        "NUMBER_OF_BYTES": "15989",
        "_STATISTICS_WRITING_APP": "mkvmerge v82.0 ('I'm The President') 64-bit",
        "_STATISTICS_WRITING_DATE_UTC": "2024-07-26 07:35:21",
        "_STATISTICS_TAGS": "BPS DURATION NUMBER_OF_FRAMES NUMBER_OF_BYTES",
        "DURATION": "00:45:25.541000000"
      }
    },
    {
      "index": 33,
      "codec_name": "subrip",
      "codec_long_name": "SubRip subtitle",
      "codec_type": "subtitle",
      "codec_tag_string": "[0][0][0][0]",
      "codec_tag": "0x0000",
      "r_frame_rate": "0/0",
      "avg_frame_rate": "0/0",
      "time_base": "1/1000",
      "start_pts": 0,
      "start_time": "0.000000",
      "duration_ts": 3015701,
      "duration": "3015.701000",
      "disposition": {
        "default": 0,
        "dub": 0,
        "original": 0,
        "comment": 0,
        "lyrics": 0,
        "karaoke": 0,
        "forced": 0,
        "hearing_impaired": 0,
        "visual_impaired": 0,
        "clean_effects": 0,
        "attached_pic": 0,
        "timed_thumbnails": 0,
        "captions": 0,
        "descriptions": 0,
        "metadata": 0,
        "dependent": 0,
        "still_image": 0
      },
      "tags": {
        "language": "por",
        "title": "Brazilian",
        "BPS": "55",
        "NUMBER_OF_FRAMES": "645",
        "NUMBER_OF_BYTES": "19861",
        "_STATISTICS_WRITING_APP": "mkvmerge v82.0 ('I'm The President') 64-bit",
        "_STATISTICS_WRITING_DATE_UTC": "2024-07-26 07:35:21",
        "_STATISTICS_TAGS": "BPS DURATION NUMBER_OF_FRAMES NUMBER_OF_BYTES",
        "DURATION": "00:48:39.141000000"
      }
    },
    {
      "index": 34,
      "codec_name": "subrip",
      "codec_long_name": "SubRip subtitle",
      "codec_type": "subtitle",
      "codec_tag_string": "[0][0][0][0]",
      "codec_tag": "0x0000",
      "r_frame_rate": "0/0",
      "avg_frame_rate": "0/0",
      "time_base": "1/1000",
      "start_pts": 0,
      "start_time": "0.000000",
      "duration_ts": 3015701,
      "duration": "3015.701000",
      "disposition": {
        "default": 0,
        "dub": 0,
        "original": 0,
        "comment": 0,
        "lyrics": 0,
        "karaoke": 0,
        "forced": 0,
        "hearing_impaired": 0,
        "visual_impaired": 0,
        "clean_effects": 0,
        "attached_pic": 0,
        "timed_thumbnails": 0,
        "captions": 0,
        "descriptions": 0,
        "metadata": 0,
        "dependent": 0,
        "still_image": 0
      },
      "tags": {
        "language": "por",
        "title": "Brazilian",
        "BPS": "73",
        "NUMBER_OF_FRAMES": "643",
        "NUMBER_OF_BYTES": "24229",
        "_STATISTICS_WRITING_APP": "mkvmerge v82.0 ('I'm The President') 64-bit",
        "_STATISTICS_WRITING_DATE_UTC": "2024-07-26 07:35:21",
        "_STATISTICS_TAGS": "BPS DURATION NUMBER_OF_FRAMES NUMBER_OF_BYTES",
        "DURATION": "00:45:25.861000000"
      }
    },
    {
      "index": 35,
      "codec_name": "subrip",
      "codec_long_name": "SubRip subtitle",
      "codec_type": "subtitle",
      "codec_tag_string": "[0][0][0][0]",
      "codec_tag": "0x0000",
      "r_frame_rate": "0/0",
      "avg_frame_rate": "0/0",
      "time_base": "1/1000",
      "start_pts": 0,
      "start_time": "0.000000",
      "duration_ts": 3015701,
      "duration": "3015.701000",
      "disposition": {
        "default": 0,
        "dub": 0,
        "original": 0,
        "comment": 0,
        "lyrics": 0,
        "karaoke": 0,
        "forced": 0,
        "hearing_impaired": 0,
        "visual_impaired": 0,
        "clean_effects": 0,
        "attached_pic": 0,
        "timed_thumbnails": 0,
        "captions": 0,
        "descriptions": 0,
        "metadata": 0,
        "dependent": 0,
        "still_image": 0
      },
      "tags": {
        "language": "por",
        "title": "Brazilian (SDH)",
        "BPS": "73",
        "NUMBER_OF_FRAMES": "718",
        "NUMBER_OF_BYTES": "26824",
        "_STATISTICS_WRITING_APP": "mkvmerge v82.0 ('I'm The President') 64-bit",
        "_STATISTICS_WRITING_DATE_UTC": "2024-07-26 07:35:21",
        "_STATISTICS_TAGS": "BPS DURATION NUMBER_OF_FRAMES NUMBER_OF_BYTES",
        "DURATION": "00:48:39.141000000"
      }
    },
    {
      "index": 36,
      "codec_name": "subrip",
      "codec_long_name": "SubRip subtitle",
      "codec_type": "subtitle",
      "codec_tag_string": "[0][0][0][0]",
      "codec_tag": "0x0000",
      "r_frame_rate": "0/0",
      "avg_frame_rate": "0/0",
      "time_base": "1/1000",
      "start_pts": 0,
      "start_time": "0.000000",
      "duration_ts": 3015701,
      "duration": "3015.701000",
      "disposition": {
        "default": 0,
        "dub": 0,
        "original": 0,
        "comment": 0,
        "lyrics": 0,
        "karaoke": 0,
        "forced": 0,
        "hearing_impaired": 0,
        "visual_impaired": 0,
        "clean_effects": 0,
        "attached_pic": 0,
        "timed_thumbnails": 0,
        "captions": 0,
        "descriptions": 0,
        "metadata": 0,
        "dependent": 0,
        "still_image": 0
      },
      "tags": {
        "language": "por",
        "title": "European",
        "BPS": "56",
        "NUMBER_OF_FRAMES": "633",
        "NUMBER_OF_BYTES": "20231",
        "_STATISTICS_WRITING_APP": "mkvmerge v82.0 ('I'm The President') 64-bit",
        "_STATISTICS_WRITING_DATE_UTC": "2024-07-26 07:35:21",
        "_STATISTICS_TAGS": "BPS DURATION NUMBER_OF_FRAMES NUMBER_OF_BYTES",
        "DURATION": "00:48:39.141000000"
      }
    },
    {
      "index": 37,
      "codec_name": "subrip",
      "codec_long_name": "SubRip subtitle",
      "codec_type": "subtitle",
      "codec_tag_string": "[0][0][0][0]",
      "codec_tag": "0x0000",
      "r_frame_rate": "0/0",
      "avg_frame_rate": "0/0",
      "time_base": "1/1000",
      "start_pts": 0,
      "start_time": "0.000000",
      "duration_ts": 3015701,
      "duration": "3015.701000",
      "disposition": {
        "default": 0,
        "dub": 0,
        "original": 0,
        "comment": 0,
        "lyrics": 0,
        "karaoke": 0,
        "forced": 0,
        "hearing_impaired": 0,
        "visual_impaired": 0,
        "clean_effects": 0,
        "attached_pic": 0,
        "timed_thumbnails": 0,
        "captions": 0,
        "descriptions": 0,
        "metadata": 0,
        "dependent": 0,
        "still_image": 0
      },
      "tags": {
        "language": "rum",
        "BPS": "57",
        "NUMBER_OF_FRAMES": "600",
        "NUMBER_OF_BYTES": "20319",
        "_STATISTICS_WRITING_APP": "mkvmerge v82.0 ('I'm The President') 64-bit",
        "_STATISTICS_WRITING_DATE_UTC": "2024-07-26 07:35:21",
        "_STATISTICS_TAGS": "BPS DURATION NUMBER_OF_FRAMES NUMBER_OF_BYTES",
        "DURATION": "00:48:39.141000000"
      }
    },
    {
      "index": 38,
      "codec_name": "subrip",
      "codec_long_name": "SubRip subtitle",
      "codec_type": "subtitle",
      "codec_tag_string": "[0][0][0][0]",
      "codec_tag": "0x0000",
      "r_frame_rate": "0/0",
      "avg_frame_rate": "0/0",
      "time_base": "1/1000",
      "start_pts": 0,
      "start_time": "0.000000",
      "duration_ts": 3015701,
      "duration": "3015.701000",
      "disposition": {
        "default": 0,
        "dub": 0,
        "original": 0,
        "comment": 0,
        "lyrics": 0,
        "karaoke": 0,
        "forced": 0,
        "hearing_impaired": 0,
        "visual_impaired": 0,
        "clean_effects": 0,
        "attached_pic": 0,
        "timed_thumbnails": 0,
        "captions": 0,
        "descriptions": 0,
        "metadata": 0,
        "dependent": 0,
        "still_image": 0
      },
      "tags": {
        "language": "rus",
        "BPS": "97",
        "NUMBER_OF_FRAMES": "657",
        "NUMBER_OF_BYTES": "34621",
        "_STATISTICS_WRITING_APP": "mkvmerge v82.0 ('I'm The President') 64-bit",
        "_STATISTICS_WRITING_DATE_UTC": "2024-07-26 07:35:21",
        "_STATISTICS_TAGS": "BPS DURATION NUMBER_OF_FRAMES NUMBER_OF_BYTES",
        "DURATION": "00:48:39.141000000"
      }
    },
    {
      "index": 39,
      "codec_name": "subrip",
      "codec_long_name": "SubRip subtitle",
      "codec_type": "subtitle",
      "codec_tag_string": "[0][0][0][0]",
      "codec_tag": "0x0000",
      "r_frame_rate": "0/0",
      "avg_frame_rate": "0/0",
      "time_base": "1/1000",
      "start_pts": 0,
      "start_time": "0.000000",
      "duration_ts": 3015701,
      "duration": "3015.701000",
      "disposition": {
        "default": 0,
        "dub": 0,
        "original": 0,
        "comment": 0,
        "lyrics": 0,
        "karaoke": 0,
        "forced": 0,
        "hearing_impaired": 0,
        "visual_impaired": 0,
        "clean_effects": 0,
        "attached_pic": 0,
        "timed_thumbnails": 0,
        "captions": 0,
        "descriptions": 0,
        "metadata": 0,
        "dependent": 0,
        "still_image": 0
      },
      "tags": {
        "language": "swe",
        "BPS": "55",
        "NUMBER_OF_FRAMES": "545",
        "NUMBER_OF_BYTES": "19794",
        "_STATISTICS_WRITING_APP": "mkvmerge v82.0 ('I'm The President') 64-bit",
        "_STATISTICS_WRITING_DATE_UTC": "2024-07-26 07:35:21",
        "_STATISTICS_TAGS": "BPS DURATION NUMBER_OF_FRAMES NUMBER_OF_BYTES",
        "DURATION": "00:48:39.141000000"
      }
    },
    {
      "index": 40,
      "codec_name": "subrip",
      "codec_long_name": "SubRip subtitle",
      "codec_type": "subtitle",
      "codec_tag_string": "[0][0][0][0]",
      "codec_tag": "0x0000",
      "r_frame_rate": "0/0",
      "avg_frame_rate": "0/0",
      "time_base": "1/1000",
      "start_pts": 0,
      "start_time": "0.000000",
      "duration_ts": 3015701,
      "duration": "3015.701000",
      "disposition": {
        "default": 0,
        "dub": 0,
        "original": 0,
        "comment": 0,
        "lyrics": 0,
        "karaoke": 0,
        "forced": 0,
        "hearing_impaired": 0,
        "visual_impaired": 0,
        "clean_effects": 0,
        "attached_pic": 0,
        "timed_thumbnails": 0,
        "captions": 0,
        "descriptions": 0,
        "metadata": 0,
        "dependent": 0,
        "still_image": 0
      },
      "tags": {
        "language": "tha",
        "BPS": "160",
        "NUMBER_OF_FRAMES": "676",
        "NUMBER_OF_BYTES": "53241",
        "_STATISTICS_WRITING_APP": "mkvmerge v82.0 ('I'm The President') 64-bit",
        "_STATISTICS_WRITING_DATE_UTC": "2024-07-26 07:35:21",
        "_STATISTICS_TAGS": "BPS DURATION NUMBER_OF_FRAMES NUMBER_OF_BYTES",
        "DURATION": "00:45:25.821000000"
      }
    },
    {
      "index": 41,
      "codec_name": "subrip",
      "codec_long_name": "SubRip subtitle",
      "codec_type": "subtitle",
      "codec_tag_string": "[0][0][0][0]",
      "codec_tag": "0x0000",
      "r_frame_rate": "0/0",
      "avg_frame_rate": "0/0",
      "time_base": "1/1000",
      "start_pts": 0,
      "start_time": "0.000000",
      "duration_ts": 3015701,
      "duration": "3015.701000",
      "disposition": {
        "default": 0,
        "dub": 0,
        "original": 0,
        "comment": 0,
        "lyrics": 0,
        "karaoke": 0,
        "forced": 0,
        "hearing_impaired": 0,
        "visual_impaired": 0,
        "clean_effects": 0,
        "attached_pic": 0,
        "timed_thumbnails": 0,
        "captions": 0,
        "descriptions": 0,
        "metadata": 0,
        "dependent": 0,
        "still_image": 0
      },
      "tags": {
        "language": "tur",
        "BPS": "61",
        "NUMBER_OF_FRAMES": "547",
        "NUMBER_OF_BYTES": "21846",
        "_STATISTICS_WRITING_APP": "mkvmerge v82.0 ('I'm The President') 64-bit",
        "_STATISTICS_WRITING_DATE_UTC": "2024-07-26 07:35:21",
        "_STATISTICS_TAGS": "BPS DURATION NUMBER_OF_FRAMES NUMBER_OF_BYTES",
        "DURATION": "00:48:39.141000000"
      }
    },
    {
      "index": 42,
      "codec_name": "subrip",
      "codec_long_name": "SubRip subtitle",
      "codec_type": "subtitle",
      "codec_tag_string": "[0][0][0][0]",
      "codec_tag": "0x0000",
      "r_frame_rate": "0/0",
      "avg_frame_rate": "0/0",
      "time_base": "1/1000",
      "start_pts": 0,
      "start_time": "0.000000",
      "duration_ts": 3015701,
      "duration": "3015.701000",
      "disposition": {
        "default": 0,
        "dub": 0,
        "original": 0,
        "comment": 0,
        "lyrics": 0,
        "karaoke": 0,
        "forced": 0,
        "hearing_impaired": 0,
        "visual_impaired": 0,
        "clean_effects": 0,
        "attached_pic": 0,
        "timed_thumbnails": 0,
        "captions": 0,
        "descriptions": 0,
        "metadata": 0,
        "dependent": 0,
        "still_image": 0
      },
      "tags": {
        "language": "tur",
        "BPS": "67",
        "NUMBER_OF_FRAMES": "636",
        "NUMBER_OF_BYTES": "22463",
        "_STATISTICS_WRITING_APP": "mkvmerge v82.0 ('I'm The President') 64-bit",
        "_STATISTICS_WRITING_DATE_UTC": "2024-07-26 07:35:21",
        "_STATISTICS_TAGS": "BPS DURATION NUMBER_OF_FRAMES NUMBER_OF_BYTES",
        "DURATION": "00:45:25.541000000"
      }
    },
    {
      "index": 43,
      "codec_name": "subrip",
      "codec_long_name": "SubRip subtitle",
      "codec_type": "subtitle",
      "codec_tag_string": "[0][0][0][0]",
      "codec_tag": "0x0000",
      "r_frame_rate": "0/0",
      "avg_frame_rate": "0/0",
      "time_base": "1/1000",
      "start_pts": 0,
      "start_time": "0.000000",
      "duration_ts": 3015701,
      "duration": "3015.701000",
      "disposition": {
        "default": 0,
        "dub": 0,
        "original": 0,
        "comment": 0,
        "lyrics": 0,
        "karaoke": 0,
        "forced": 0,
        "hearing_impaired": 0,
        "visual_impaired": 0,
        "clean_effects": 0,
        "attached_pic": 0,
        "timed_thumbnails": 0,
        "captions": 0,
        "descriptions": 0,
        "metadata": 0,
        "dependent": 0,
        "still_image": 0
      },
      "tags": {
        "language": "ukr",
        "BPS": "92",
        "NUMBER_OF_FRAMES": "664",
        "NUMBER_OF_BYTES": "32791",
        "_STATISTICS_WRITING_APP": "mkvmerge v82.0 ('I'm The President') 64-bit",
        "_STATISTICS_WRITING_DATE_UTC": "2024-07-26 07:35:21",
        "_STATISTICS_TAGS": "BPS DURATION NUMBER_OF_FRAMES NUMBER_OF_BYTES",
        "DURATION": "00:48:39.141000000"
      }
    },
    {
      "index": 44,
      "codec_name": "subrip",
      "codec_long_name": "SubRip subtitle",
      "codec_type": "subtitle",
      "codec_tag_string": "[0][0][0][0]",
      "codec_tag": "0x0000",
      "r_frame_rate": "0/0",
      "avg_frame_rate": "0/0",
      "time_base": "1/1000",
      "start_pts": 0,
      "start_time": "0.000000",
      "duration_ts": 3015701,
      "duration": "3015.701000",
      "disposition": {
        "default": 0,
        "dub": 0,
        "original": 0,
        "comment": 0,
        "lyrics": 0,
        "karaoke": 0,
        "forced": 0,
        "hearing_impaired": 0,
        "visual_impaired": 0,
        "clean_effects": 0,
        "attached_pic": 0,
        "timed_thumbnails": 0,
        "captions": 0,
        "descriptions": 0,
        "metadata": 0,
        "dependent": 0,
        "still_image": 0
      },
      "tags": {
        "language": "vie",
        "BPS": "78",
        "NUMBER_OF_FRAMES": "610",
        "NUMBER_OF_BYTES": "27881",
        "_STATISTICS_WRITING_APP": "mkvmerge v82.0 ('I'm The President') 64-bit",
        "_STATISTICS_WRITING_DATE_UTC": "2024-07-26 07:35:21",
        "_STATISTICS_TAGS": "BPS DURATION NUMBER_OF_FRAMES NUMBER_OF_BYTES",
        "DURATION": "00:48:39.141000000"
      }
    },
    {
      "index": 45,
      "codec_name": "subrip",
      "codec_long_name": "SubRip subtitle",
      "codec_type": "subtitle",
      "codec_tag_string": "[0][0][0][0]",
      "codec_tag": "0x0000",
      "r_frame_rate": "0/0",
      "avg_frame_rate": "0/0",
      "time_base": "1/1000",
      "start_pts": 0,
      "start_time": "0.000000",
      "duration_ts": 3015701,
      "duration": "3015.701000",
      "disposition": {
        "default": 0,
        "dub": 0,
        "original": 0,
        "comment": 0,
        "lyrics": 0,
        "karaoke": 0,
        "forced": 0,
        "hearing_impaired": 0,
        "visual_impaired": 0,
        "clean_effects": 0,
        "attached_pic": 0,
        "timed_thumbnails": 0,
        "captions": 0,
        "descriptions": 0,
        "metadata": 0,
        "dependent": 0,
        "still_image": 0
      },
      "tags": {
        "language": "chi",
        "title": "Simplified",
        "BPS": "62",
        "NUMBER_OF_FRAMES": "666",
        "NUMBER_OF_BYTES": "22084",
        "_STATISTICS_WRITING_APP": "mkvmerge v82.0 ('I'm The President') 64-bit",
        "_STATISTICS_WRITING_DATE_UTC": "2024-07-26 07:35:21",
        "_STATISTICS_TAGS": "BPS DURATION NUMBER_OF_FRAMES NUMBER_OF_BYTES",
        "DURATION": "00:48:39.141000000"
      }
    },
    {
      "index": 46,
      "codec_name": "subrip",
      "codec_long_name": "SubRip subtitle",
      "codec_type": "subtitle",
      "codec_tag_string": "[0][0][0][0]",
      "codec_tag": "0x0000",
      "r_frame_rate": "0/0",
      "avg_frame_rate": "0/0",
      "time_base": "1/1000",
      "start_pts": 0,
      "start_time": "0.000000",
      "duration_ts": 3015701,
      "duration": "3015.701000",
      "disposition": {
        "default": 0,
        "dub": 0,
        "original": 0,
        "comment": 0,
        "lyrics": 0,
        "karaoke": 0,
        "forced": 0,
        "hearing_impaired": 0,
        "visual_impaired": 0,
        "clean_effects": 0,
        "attached_pic": 0,
        "timed_thumbnails": 0,
        "captions": 0,
        "descriptions": 0,
        "metadata": 0,
        "dependent": 0,
        "still_image": 0
      },
      "tags": {
        "language": "chi",
        "title": "Traditional",
        "BPS": "57",
        "NUMBER_OF_FRAMES": "657",
        "NUMBER_OF_BYTES": "20532",
        "_STATISTICS_WRITING_APP": "mkvmerge v82.0 ('I'm The President') 64-bit",
        "_STATISTICS_WRITING_DATE_UTC": "2024-07-26 07:35:21",
        "_STATISTICS_TAGS": "BPS DURATION NUMBER_OF_FRAMES NUMBER_OF_BYTES",
        "DURATION": "00:48:39.141000000"
      }
    }
  ],
  "format": {
    "filename": "01.mkv",
    "nb_streams": 47,
    "nb_programs": 0,
    "format_name": "matroska,webm",
    "format_long_name": "Matroska / WebM",
    "start_time": "0.000000",
    "duration": "3015.701000",
    "size": "897512982",
    "bit_rate": "2380907",
    "probe_score": 100,
    "tags": {
      "ENCODER": "Lavf59.4.102"
    }
  }
}
